<svg id="Layer_1" data-name="Layer 1" xmlns="http://www.w3.org/2000/svg" viewBox="0 0 719.26 340.3"><defs><style>.cls-1{fill:#666;}.cls-2{fill:#1795d4;}</style></defs><title>Equal_Experts_RGB_Logo_Colour</title><polygon class="cls-1" points="329.08 103.49 328.24 115.37 306.07 115.37 306.07 125.82 325.63 125.82 325.63 137.63 306.07 137.63 306.07 148.41 328.5 148.41 328.5 160.31 292.75 160.31 292.75 103.49 329.08 103.49"/><rect class="cls-2" x="145.49" y="141.77" width="63.51" height="19.06"/><rect class="cls-2" x="145.49" y="179.09" width="63.51" height="19.06"/><polygon class="cls-2" points="104.5 104.5 104.5 123.56 104.5 216.62 104.5 235.69 123.56 235.69 161.92 235.69 161.92 216.62 123.56 216.62 123.56 123.56 161.92 123.56 161.92 104.5 123.56 104.5 104.5 104.5"/><polygon class="cls-2" points="230.93 104.5 191.51 104.5 191.51 123.56 230.93 123.56 230.93 216.62 191.51 216.62 191.51 235.69 230.93 235.69 249.99 235.69 249.99 216.62 249.99 123.56 249.99 104.5 230.93 104.5"/><path class="cls-1" d="M336.5,131.73c0-17.79,6.24-29.59,23.69-29.59s23.69,11.8,23.69,29.59V132c0,12.39-3,21.75-10.63,26.47l8.6,10-11.55,5.9L362,161.57a11.15,11.15,0,0,1-1.77.09c-17.45,0-23.69-11.81-23.69-29.68Zm14,.16c0,11.72,2.53,17.71,9.7,17.71s9.78-6,9.78-17.71-2.62-17.7-9.78-17.7-9.7,6.07-9.7,17.7"/><path class="cls-1" d="M406.38,103.4V138c0,7.76,1.6,11.64,8.43,11.64s8.43-3.88,8.43-11.64V103.4h13.32v35.24c0,15-5.23,23-21.75,23s-21.74-8-21.74-23V103.4Z"/><path class="cls-1" d="M473.23,103.49c4.55,11.88,12.48,36.42,18,56.81H477.7l-2.45-10.79H458l-2.45,10.79H442A587.93,587.93,0,0,1,460,103.49Zm-6.83,15.59c-2.1,6.32-3.79,12.48-5.4,18.55h11.22c-1.77-6.07-3.37-12.23-5.4-18.55Z"/><polygon class="cls-1" points="511.92 103.49 511.92 148.41 534.34 148.41 534.34 160.31 498.6 160.31 498.6 103.49 511.92 103.49"/><polygon class="cls-1" points="329.08 178.98 328.24 190.87 306.07 190.87 306.07 201.32 325.63 201.32 325.63 213.13 306.07 213.13 306.07 223.92 328.5 223.92 328.5 235.8 292.75 235.8 292.75 178.98 329.08 178.98"/><path class="cls-1" d="M350.07,179c2.45,5,6.07,12,9.1,17.29h.26c3.12-5.07,6.83-12.31,9.19-17.29h15c-4,8.1-10.19,18.8-15.93,28.25l17.12,28.57H368.87l-9.28-17.28h-.24l-9.44,17.28H334.22L351,207.14c-5.31-9-12-21.16-15.85-28.16Z"/><path class="cls-1" d="M406.72,179c5,0,9.95.34,13.74,1.61,6.33,2.27,10.45,8.51,10.45,17.28,0,12.9-8.17,19.3-21.92,19.3h-3.7V235.8H392V179Zm-1.43,26.3h2.61c5.73,0,9-.67,9-7.41,0-2.53-.93-4.72-2.45-5.74s-3.53-1.26-6.4-1.26h-2.78Z"/><polygon class="cls-1" points="475.93 178.98 475.08 190.87 452.91 190.87 452.91 201.32 472.47 201.32 472.47 213.13 452.91 213.13 452.91 223.92 475.34 223.92 475.34 235.8 439.59 235.8 439.59 178.98 475.93 178.98"/><path class="cls-1" d="M500.12,179c5,0,9.95.34,13.74,1.61,6.32,2.27,10.45,8.5,10.45,17.28,0,7.84-3,13.32-8.51,16.35l10.28,21.58H512.26l-8.18-18.71c-.93.08-2.19.08-3.37.08h-2V235.8H485.36V179Zm-1.43,26.56h2.61c5.73,0,9-.93,9-7.67,0-2.53-.93-4.89-2.44-5.91s-3.38-1.26-6.42-1.26h-2.77Z"/><polygon class="cls-1" points="571.01 178.98 570.17 190.87 556.6 190.87 556.6 235.8 543.28 235.8 543.28 190.87 529.37 190.87 529.37 178.98 571.01 178.98"/><path class="cls-1" d="M610.89,193.15a29.23,29.23,0,0,0-13.07-3.37,11.11,11.11,0,0,0-4.89.84,3.75,3.75,0,0,0-2.45,3.7c0,3,3,4.81,7.17,6.5l4.72,1.85c8.43,3.38,12.39,7.93,12.39,16.19,0,13.15-9.61,18.29-21.16,18.29a52.49,52.49,0,0,1-15.76-2.69l.59-12.82a36.73,36.73,0,0,0,13.91,3.45c6.07,0,8.43-1.52,8.43-5,0-3.28-2.19-4.72-7-6.66l-4.72-1.85c-6.83-2.7-12.56-7.5-12.56-16.94s6.83-17,20.65-17a41.09,41.09,0,0,1,14.5,2.87Z"/></svg>